<?xml version="1.0" standalone="no"?>
<!DOCTYPE svg PUBLIC "-//W3C//DTD SVG 20010904//EN"
 "http://www.w3.org/TR/2001/REC-SVG-20010904/DTD/svg10.dtd">
<svg version="1.0" xmlns="http://www.w3.org/2000/svg"
 width="235.000000pt" height="235.000000pt" viewBox="0 0 235.000000 235.000000"
 preserveAspectRatio="xMidYMid meet">
<metadata>
Created by potrace 1.14, written by Peter Selinger 2001-2017
</metadata>
<g transform="translate(0.000000,235.000000) scale(0.100000,-0.100000)"
fill="#000000" stroke="none">
<path d="M1224 2099 c-4 -19 -9 -40 -10 -47 -3 -17 -54 -92 -63 -92 -5 0 -28
-17 -78 -60 -7 -5 -14 -10 -17 -10 -8 0 -96 -61 -127 -89 -34 -28 -79 -93 -84
-118 -2 -10 -4 -18 -5 -18 -1 0 -4 -11 -6 -24 -2 -14 -6 -27 -8 -29 -10 -10
-36 49 -43 97 l-8 53 -32 -45 c-18 -25 -33 -48 -33 -50 0 -3 -5 -18 -12 -34
-21 -52 -15 -114 19 -203 32 -80 48 -160 34 -160 -4 0 -15 15 -26 33 -23 39
-51 63 -87 76 -30 11 -34 4 -19 -34 7 -18 -2 -94 -16 -125 -3 -8 -7 -19 -8
-25 -2 -5 -12 -34 -24 -63 -11 -28 -23 -66 -26 -84 -8 -44 -12 -48 -45 -48
-23 0 -31 5 -36 25 -8 32 -30 32 -38 1 -5 -21 -13 -25 -54 -28 -34 -2 -47 -7
-47 -18 0 -11 11 -15 42 -14 42 1 42 1 41 -35 0 -20 -3 -40 -5 -44 -3 -5 -7
-32 -9 -60 -3 -29 -6 -65 -9 -82 -2 -16 -7 -52 -10 -80 -11 -88 -14 -109 -19
-135 -2 -14 -7 -49 -10 -78 -3 -28 -9 -67 -12 -86 -3 -19 -7 -52 -9 -73 -2
-21 -6 -47 -9 -58 -2 -11 -5 -23 -5 -27 -1 -3 -20 -9 -43 -13 -24 -4 -54 -9
-68 -12 -42 -7 -100 -24 -100 -29 0 -2 12 -2 28 1 15 2 63 7 107 10 44 3 103
8 130 11 28 2 95 7 150 9 55 3 147 7 205 11 138 7 724 7 865 0 192 -11 278
-16 340 -21 140 -10 202 -16 225 -21 23 -4 24 -4 5 8 -11 6 -38 15 -60 19 -22
4 -56 11 -75 14 -19 4 -40 8 -47 9 -21 3 -25 13 -28 63 -2 26 -4 48 -5 48 -3
0 -10 43 -14 95 -3 30 -5 55 -6 55 -2 0 -7 38 -14 109 -4 32 -8 62 -10 65 -2
3 -7 35 -11 71 -4 36 -9 76 -11 90 -2 14 -6 51 -9 84 -3 32 -7 63 -8 68 -1 6
13 11 31 12 17 0 32 -1 33 -4 0 -3 2 -33 4 -68 3 -75 26 -106 89 -124 62 -17
166 -16 188 2 34 29 7 44 -82 45 -44 1 -83 -2 -86 -6 -6 -10 -33 -1 -55 18
-12 10 -16 30 -15 73 2 91 -5 102 -60 99 -43 -3 -71 12 -58 32 2 4 -4 10 -13
13 -17 7 -33 -9 -33 -31 0 -8 -15 -13 -40 -13 -25 0 -41 5 -42 13 -1 15 -3 23
-13 71 l-8 40 -19 -24 c-10 -12 -33 -30 -51 -40 l-32 -17 -1 -99 c0 -56 -6
-109 -13 -121 -6 -13 -9 -23 -7 -23 7 0 -38 -118 -65 -169 -22 -42 -49 -61
-79 -55 -8 1 -18 3 -21 3 -3 1 -5 31 -5 68 l1 68 -153 3 -154 3 -11 -31 c-6
-16 -15 -30 -19 -30 -4 0 -8 -6 -8 -14 0 -23 -49 -74 -68 -72 -14 3 -17 14
-17 69 0 36 -3 68 -6 71 -3 3 -23 7 -45 10 -82 8 -209 81 -273 159 -21 26 -28
71 -22 145 1 8 20 12 61 12 56 0 61 2 92 37 18 21 47 52 64 69 24 25 28 35 19
47 -10 15 -14 76 -5 78 18 2 58 -23 69 -45 l14 -26 216 -1 c247 -1 259 -2 286
-16 11 -6 23 -10 26 -10 11 3 74 -58 88 -85 8 -16 18 -28 23 -28 11 0 10 28
-2 35 -15 9 -12 41 5 55 15 12 66 6 64 -8 -5 -30 3 -35 20 -13 18 24 18 25
-51 164 -75 153 -98 221 -91 280 l4 38 -28 -14 c-47 -25 -93 -92 -93 -137 0
-32 -16 -24 -43 23 -36 61 -44 114 -42 282 0 83 -3 168 -8 190 -10 43 -45 127
-57 135 -3 3 -11 14 -17 24 -10 17 -11 16 -19 -15z m-399 -916 c19 -11 19 -12
-5 -32 -32 -26 -45 -26 -65 1 -14 21 -14 24 1 35 19 14 40 13 69 -4z m-227
-222 c7 -1 10 -6 6 -12 -3 -6 -14 -9 -24 -6 -36 9 -50 -11 -45 -63 8 -78 54
-203 92 -252 85 -107 188 -177 311 -213 135 -40 219 -40 399 -1 66 14 202 102
244 157 13 18 29 37 35 43 41 43 81 154 99 273 7 48 -7 60 -62 57 -21 -1 -30
2 -27 10 3 7 31 11 82 10 l77 0 -2 -45 c-1 -24 -4 -54 -7 -66 -2 -12 -7 -48
-11 -80 -3 -33 -7 -70 -10 -84 -2 -13 -6 -44 -9 -69 -3 -25 -8 -61 -11 -80 -3
-19 -7 -53 -10 -75 -3 -22 -7 -58 -10 -80 -3 -22 -7 -55 -9 -73 -2 -18 -6 -35
-9 -38 -3 -3 -3 -12 0 -19 4 -11 -7 -13 -49 -10 -249 20 -733 20 -987 0 -73
-6 -91 -4 -92 7 -1 7 -3 24 -5 38 -7 50 -13 96 -18 145 -6 49 -13 100 -22 159
-3 16 -7 50 -10 75 -5 46 -6 54 -19 146 -4 28 -8 67 -8 88 -1 20 -5 37 -10 37
-5 0 -4 6 2 13 7 9 28 13 58 11 27 -1 54 -3 61 -3z m1238 -112 c3 -54 12 -132
19 -179 3 -19 8 -55 11 -80 3 -25 7 -61 10 -80 3 -19 7 -55 9 -80 5 -50 13
-105 15 -105 1 0 4 -26 6 -57 5 -55 5 -57 -18 -53 -13 3 -50 8 -83 11 -59 6
-77 16 -69 38 2 6 6 31 8 56 2 25 5 45 6 45 2 0 8 52 14 120 2 22 5 41 6 43 2
1 4 16 5 32 1 17 3 31 5 33 1 1 3 20 4 42 0 22 4 45 7 50 3 6 5 25 4 43 -1 17
1 32 5 32 3 0 6 12 6 28 3 107 24 152 30 61z m-1378 18 c-1 -7 2 -41 6 -77 5
-36 10 -76 11 -90 2 -14 6 -41 9 -60 3 -19 8 -57 10 -85 3 -27 7 -66 11 -86 6
-38 9 -61 20 -171 l7 -68 -38 -1 c-22 0 -48 -2 -59 -4 -63 -12 -80 -10 -78 10
4 49 14 134 19 156 2 13 7 44 9 69 3 25 7 61 10 80 3 19 7 58 10 85 3 28 7 61
10 75 11 76 18 136 17 144 -2 4 0 17 3 27 7 20 27 16 23 -4z m417 -157 c0 -1
13 -4 30 -6 16 -3 32 -7 34 -10 9 -9 -52 -112 -69 -117 -33 -9 -41 7 -39 76 2
61 4 66 23 62 12 -2 21 -4 21 -5z m495 -19 c0 -9 -40 -93 -51 -107 -5 -6 -20
-9 -32 -7 -22 4 -23 9 -21 61 1 32 2 57 3 58 8 5 101 1 101 -5z"/>
<path d="M1603 1132 c-8 -5 -9 -13 -3 -22 11 -17 23 -8 18 14 -2 9 -8 12 -15
8z"/>
<path d="M839 1044 c-9 -11 -10 -20 -2 -32 14 -23 49 -27 57 -6 17 43 -26 73
-55 38z"/>
</g>
</svg>
