<svg aria-hidden="true" style="position: absolute; width: 0; height: 0; overflow: hidden;" version="1.1"
     xmlns="http://www.w3.org/2000/svg" xmlns:xlink="http://www.w3.org/1999/xlink">
    <defs>
        <symbol id="icon-guarantee" viewBox="0 0 32 32">
            <path d="M12.9 18.267l1.167-3.8-3.067-2.467h3.8l1.2-3.733 1.2 3.733h3.8l-3.1 2.467 1.167 3.8-3.067-2.367-3.1 2.367zM8 30.667v-10.3q-1.267-1.4-1.967-3.2t-0.7-3.833q0-4.467 3.1-7.567t7.567-3.1 7.567 3.1 3.1 7.567q0 2.033-0.7 3.833t-1.967 3.2v10.3l-8-2.667-8 2.667zM16 21.333q3.333 0 5.667-2.333t2.333-5.667-2.333-5.667-5.667-2.333-5.667 2.333-2.333 5.667 2.333 5.667 5.667 2.333zM10.667 26.7l5.333-1.367 5.333 1.367v-4.133q-1.167 0.667-2.517 1.050t-2.817 0.383-2.817-0.383-2.517-1.050v4.133z"></path>
        </symbol>
        <symbol id="icon-play" viewBox="0 0 30 32">
            <path d="M29.538 16l-27.692 15.988v-31.976l27.692 15.988z"></path>
        </symbol>
        <symbol id="icon-done" viewBox="0 0 32 32">
            <path d="M11.467 30l-2.533-4.267-4.8-1.067 0.467-4.933-3.267-3.733 3.267-3.733-0.467-4.933 4.8-1.067 2.533-4.267 4.533 1.933 4.533-1.933 2.533 4.267 4.8 1.067-0.467 4.933 3.267 3.733-3.267 3.733 0.467 4.933-4.8 1.067-2.533 4.267-4.533-1.933-4.533 1.933zM12.6 26.6l3.4-1.467 3.467 1.467 1.867-3.2 3.667-0.867-0.333-3.733 2.467-2.8-2.467-2.867 0.333-3.733-3.667-0.8-1.933-3.2-3.4 1.467-3.467-1.467-1.867 3.2-3.667 0.8 0.333 3.733-2.467 2.867 2.467 2.8-0.333 3.8 3.667 0.8 1.933 3.2zM14.6 20.733l7.533-7.533-1.867-1.933-5.667 5.667-2.867-2.8-1.867 1.867 4.733 4.733z"></path>
        </symbol>
    </defs>
</svg>
