<svg aria-hidden="true" style="position: absolute; width: 0; height: 0; overflow: hidden;" version="1.1"
     xmlns="http://www.w3.org/2000/svg" xmlns:xlink="http://www.w3.org/1999/xlink">
    <defs>
        <symbol id="icon-guarantee" viewBox="0 0 32 32">
            <path d="M12.9 18.267l1.167-3.8-3.067-2.467h3.8l1.2-3.733 1.2 3.733h3.8l-3.1 2.467 1.167 3.8-3.067-2.367-3.1 2.367zM8 30.667v-10.3q-1.267-1.4-1.967-3.2t-0.7-3.833q0-4.467 3.1-7.567t7.567-3.1 7.567 3.1 3.1 7.567q0 2.033-0.7 3.833t-1.967 3.2v10.3l-8-2.667-8 2.667zM16 21.333q3.333 0 5.667-2.333t2.333-5.667-2.333-5.667-5.667-2.333-5.667 2.333-2.333 5.667 2.333 5.667 5.667 2.333zM10.667 26.7l5.333-1.367 5.333 1.367v-4.133q-1.167 0.667-2.517 1.050t-2.817 0.383-2.817-0.383-2.517-1.050v4.133z"></path>
        </symbol>
        <symbol id="icon-play" viewBox="0 0 30 32">
            <path d="M29.538 16l-27.692 15.988v-31.976l27.692 15.988z"></path>
        </symbol>
        <symbol id="icon-done" viewBox="0 0 32 32">
            <path d="M11.467 30l-2.533-4.267-4.8-1.067 0.467-4.933-3.267-3.733 3.267-3.733-0.467-4.933 4.8-1.067 2.533-4.267 4.533 1.933 4.533-1.933 2.533 4.267 4.8 1.067-0.467 4.933 3.267 3.733-3.267 3.733 0.467 4.933-4.8 1.067-2.533 4.267-4.533-1.933-4.533 1.933zM12.6 26.6l3.4-1.467 3.467 1.467 1.867-3.2 3.667-0.867-0.333-3.733 2.467-2.8-2.467-2.867 0.333-3.733-3.667-0.8-1.933-3.2-3.4 1.467-3.467-1.467-1.867 3.2-3.667 0.8 0.333 3.733-2.467 2.867 2.467 2.8-0.333 3.8 3.667 0.8 1.933 3.2zM14.6 20.733l7.533-7.533-1.867-1.933-5.667 5.667-2.867-2.8-1.867 1.867 4.733 4.733z"></path>
        </symbol>
        <symbol id="icon-shopping" viewBox="0 0 32 32">
            <path stroke-linejoin="round" stroke-linecap="round" stroke-miterlimit="4" stroke-width="2.6667" d="M14.667 27.333c0 0.736-0.597 1.333-1.333 1.333s-1.333-0.597-1.333-1.333c0-0.736 0.597-1.333 1.333-1.333s1.333 0.597 1.333 1.333z"></path>
            <path stroke-linejoin="round" stroke-linecap="round" stroke-miterlimit="4" stroke-width="2.6667" d="M25.333 27.333c0 0.736-0.597 1.333-1.333 1.333s-1.333-0.597-1.333-1.333c0-0.736 0.597-1.333 1.333-1.333s1.333 0.597 1.333 1.333z"></path>
            <path stroke-linejoin="round" stroke-linecap="round" stroke-miterlimit="4" stroke-width="2.6667" d="M3.333 3.333h4l3.6 16.533c0.257 1.226 1.329 2.134 2.613 2.134 0.019 0 0.038-0 0.057-0.001l-0.003 0h10.267c0.016 0 0.035 0.001 0.054 0.001 1.284 0 2.356-0.908 2.61-2.117l0.003-0.017 2.133-11.2h-19.2"></path>
        </symbol>
        <symbol id="icon-close" viewBox="0 0 24 24">
            <path stroke-linejoin="miter" stroke-linecap="round" stroke-miterlimit="4" stroke-width="2" d="M9 6l6 6 6-6M9 18l6-6 6 6"></path>
        </symbol>
        <symbol id="icon-up" viewBox="0 0 32 32">
            <path stroke-linejoin="round" stroke-linecap="round" stroke-miterlimit="4" stroke-width="2.6667" d="M24 20l-8-8-8 8"></path>
        </symbol>
        <symbol id="icon-menu" viewBox="0 0 32 32">
            <path d="M29.333 24.007c0 0.733-0.595 1.327-1.327 1.327h-10.68c-0.733 0-1.327-0.594-1.327-1.327s0.594-1.327 1.327-1.327h10.68c0.733 0 1.327 0.593 1.327 1.327zM29.333 16c0 0.733-0.595 1.327-1.327 1.327h-24.013c-0.733 0-1.327-0.594-1.327-1.327s0.594-1.327 1.327-1.327h24.013c0.733 0 1.327 0.595 1.327 1.327zM28.007 9.32c0.733 0 1.327-0.594 1.327-1.327s-0.594-1.327-1.327-1.327h-16.013c-0.733 0-1.327 0.594-1.327 1.327s0.594 1.327 1.327 1.327h16.013z"></path>
        </symbol>
        <symbol id="icon-ok" viewBox="0 0 32 32">
            <path d="M27 4l-15 15-7-7-5 5 12 12 20-20z"></path>
        </symbol>
        <symbol id="icon-error" viewBox="0 0 32 32">
            <path d="M14 9.5c0-0.825 0.675-1.5 1.5-1.5h1c0.825 0 1.5 0.675 1.5 1.5v1c0 0.825-0.675 1.5-1.5 1.5h-1c-0.825 0-1.5-0.675-1.5-1.5v-1z"></path>
            <path d="M20 24h-8v-2h2v-6h-2v-2h6v8h2z"></path>
            <path d="M16 0c-8.837 0-16 7.163-16 16s7.163 16 16 16 16-7.163 16-16-7.163-16-16-16zM16 29c-7.18 0-13-5.82-13-13s5.82-13 13-13 13 5.82 13 13-5.82 13-13 13z"></path>
        </symbol>
        <symbol id="icon-gift" viewBox="0 0 32 32">
            <path d="M29 10.005h-26c-0.553 0-1 0.447-1 1v9c0 0.553 0.447 1 1 1h1v10c0 0.553 0.447 1 1 1h22c0.553 0 1-0.447 1-1v-10h1c0.553 0 1-0.447 1-1v-9c0-0.553-0.447-1-1-1zM14 29.005c0 0.553-0.447 1-1 1h-6c-0.553 0-1-0.447-1-1v-8c0-0.553 0.447-1 1-1h6c0.553 0 1 0.447 1 1v8zM14 17.005c0 0.553-0.447 1-1 1h-8c-0.553 0-1-0.447-1-1v-4c0-0.553 0.447-1 1-1h8c0.553 0 1 0.447 1 1v4zM26 29.005c0 0.553-0.447 1-1 1h-6c-0.553 0-1-0.447-1-1v-8c0-0.553 0.447-1 1-1h6c0.553 0 1 0.447 1 1v8zM28 17.005c0 0.553-0.447 1-1 1h-8c-0.553 0-1-0.447-1-1v-4c0-0.553 0.447-1 1-1h8c0.553 0 1 0.447 1 1v4zM11.559 10.004h9.2c1.577-1.131 3.068-2.603 3.245-4.207 0.086-0.783-0.082-1.93-1.375-2.951-0.717-0.567-1.445-0.854-2.161-0.854-2.282 0-3.573 2.798-4.271 5.298-0.834-3.187-2.444-7.285-5.209-7.285-0.807 0-1.61 0.349-2.391 1.038-1.54 1.362-1.691 2.778-1.547 3.726 0.323 2.119 2.455 3.94 4.509 5.235zM20.468 4.392c0.221 0 0.506 0.132 0.823 0.384 0.516 0.406 0.487 0.658 0.479 0.741-0.096 0.875-1.737 2.25-3.651 3.385 0.563-2.421 1.483-4.51 2.349-4.51zM10.034 2.89c0.251-0.222 0.621-0.486 0.954-0.486 1.238 0 2.511 3.25 3.253 6.41-2.338-1.246-4.755-3.013-4.971-4.431-0.029-0.196-0.109-0.721 0.764-1.493z"></path>
        </symbol>
    </defs>
</svg>
