<svg aria-hidden="true" style="position: absolute; width: 0; height: 0; overflow: hidden;" version="1.1" xmlns="http://www.w3.org/2000/svg" xmlns:xlink="http://www.w3.org/1999/xlink">
<defs>
<symbol id="icon-guarantee" viewBox="0 0 32 32">
<path d="M12.9 18.267l1.167-3.8-3.067-2.467h3.8l1.2-3.733 1.2 3.733h3.8l-3.1 2.467 1.167 3.8-3.067-2.367-3.1 2.367zM8 30.667v-10.3q-1.267-1.4-1.967-3.2t-0.7-3.833q0-4.467 3.1-7.567t7.567-3.1 7.567 3.1 3.1 7.567q0 2.033-0.7 3.833t-1.967 3.2v10.3l-8-2.667-8 2.667zM16 21.333q3.333 0 5.667-2.333t2.333-5.667-2.333-5.667-5.667-2.333-5.667 2.333-2.333 5.667 2.333 5.667 5.667 2.333zM10.667 26.7l5.333-1.367 5.333 1.367v-4.133q-1.167 0.667-2.517 1.050t-2.817 0.383-2.817-0.383-2.517-1.050v4.133z"></path>
</symbol>
</defs>
</svg>
