<svg aria-hidden="true" style="position: absolute; width: 0; height: 0; overflow: hidden;" version="1.1"
     xmlns="http://www.w3.org/2000/svg" xmlns:xlink="http://www.w3.org/1999/xlink">
    <defs>
        <symbol id="icon-guarantee" viewBox="0 0 32 32">
            <path d="M12.9 18.267l1.167-3.8-3.067-2.467h3.8l1.2-3.733 1.2 3.733h3.8l-3.1 2.467 1.167 3.8-3.067-2.367-3.1 2.367zM8 30.667v-10.3q-1.267-1.4-1.967-3.2t-0.7-3.833q0-4.467 3.1-7.567t7.567-3.1 7.567 3.1 3.1 7.567q0 2.033-0.7 3.833t-1.967 3.2v10.3l-8-2.667-8 2.667zM16 21.333q3.333 0 5.667-2.333t2.333-5.667-2.333-5.667-5.667-2.333-5.667 2.333-2.333 5.667 2.333 5.667 5.667 2.333zM10.667 26.7l5.333-1.367 5.333 1.367v-4.133q-1.167 0.667-2.517 1.050t-2.817 0.383-2.817-0.383-2.517-1.050v4.133z"></path>
        </symbol>
        <symbol id="icon-play" viewBox="0 0 30 32">
            <path d="M29.538 16l-27.692 15.988v-31.976l27.692 15.988z"></path>
        </symbol>
        <symbol id="icon-done" viewBox="0 0 32 32">
            <path d="M11.467 30l-2.533-4.267-4.8-1.067 0.467-4.933-3.267-3.733 3.267-3.733-0.467-4.933 4.8-1.067 2.533-4.267 4.533 1.933 4.533-1.933 2.533 4.267 4.8 1.067-0.467 4.933 3.267 3.733-3.267 3.733 0.467 4.933-4.8 1.067-2.533 4.267-4.533-1.933-4.533 1.933zM12.6 26.6l3.4-1.467 3.467 1.467 1.867-3.2 3.667-0.867-0.333-3.733 2.467-2.8-2.467-2.867 0.333-3.733-3.667-0.8-1.933-3.2-3.4 1.467-3.467-1.467-1.867 3.2-3.667 0.8 0.333 3.733-2.467 2.867 2.467 2.8-0.333 3.8 3.667 0.8 1.933 3.2zM14.6 20.733l7.533-7.533-1.867-1.933-5.667 5.667-2.867-2.8-1.867 1.867 4.733 4.733z"></path>
        </symbol>
        <symbol id="icon-shopping" viewBox="0 0 32 32">
            <path stroke-linejoin="round" stroke-linecap="round" stroke-miterlimit="4" stroke-width="2.6667" d="M14.667 27.333c0 0.736-0.597 1.333-1.333 1.333s-1.333-0.597-1.333-1.333c0-0.736 0.597-1.333 1.333-1.333s1.333 0.597 1.333 1.333z"></path>
            <path stroke-linejoin="round" stroke-linecap="round" stroke-miterlimit="4" stroke-width="2.6667" d="M25.333 27.333c0 0.736-0.597 1.333-1.333 1.333s-1.333-0.597-1.333-1.333c0-0.736 0.597-1.333 1.333-1.333s1.333 0.597 1.333 1.333z"></path>
            <path stroke-linejoin="round" stroke-linecap="round" stroke-miterlimit="4" stroke-width="2.6667" d="M3.333 3.333h4l3.6 16.533c0.257 1.226 1.329 2.134 2.613 2.134 0.019 0 0.038-0 0.057-0.001l-0.003 0h10.267c0.016 0 0.035 0.001 0.054 0.001 1.284 0 2.356-0.908 2.61-2.117l0.003-0.017 2.133-11.2h-19.2"></path>
        </symbol>
        <symbol id="icon-close" viewBox="0 0 24 24">
            <path stroke-linejoin="miter" stroke-linecap="round" stroke-miterlimit="4" stroke-width="2" d="M9 6l6 6 6-6M9 18l6-6 6 6"></path>
        </symbol>
        <symbol id="icon-up" viewBox="0 0 32 32">
            <path stroke-linejoin="round" stroke-linecap="round" stroke-miterlimit="4" stroke-width="2.6667" d="M24 20l-8-8-8 8"></path>
        </symbol>
        <symbol id="icon-menu" viewBox="0 0 32 32">
            <path d="M29.333 24.007c0 0.733-0.595 1.327-1.327 1.327h-10.68c-0.733 0-1.327-0.594-1.327-1.327s0.594-1.327 1.327-1.327h10.68c0.733 0 1.327 0.593 1.327 1.327zM29.333 16c0 0.733-0.595 1.327-1.327 1.327h-24.013c-0.733 0-1.327-0.594-1.327-1.327s0.594-1.327 1.327-1.327h24.013c0.733 0 1.327 0.595 1.327 1.327zM28.007 9.32c0.733 0 1.327-0.594 1.327-1.327s-0.594-1.327-1.327-1.327h-16.013c-0.733 0-1.327 0.594-1.327 1.327s0.594 1.327 1.327 1.327h16.013z"></path>
        </symbol>
    </defs>
</svg>
