<?xml version="1.0" standalone="no"?>
<!DOCTYPE svg PUBLIC "-//W3C//DTD SVG 20010904//EN"
 "http://www.w3.org/TR/2001/REC-SVG-20010904/DTD/svg10.dtd">
<svg version="1.0" xmlns="http://www.w3.org/2000/svg"
 width="235.000000pt" height="213.000000pt" viewBox="0 0 235.000000 213.000000"
 preserveAspectRatio="xMidYMid meet">

<g transform="translate(0.000000,213.000000) scale(0.100000,-0.100000)"
fill="#000000" stroke="none">
<path d="M1230 1972 c0 -34 -35 -95 -72 -128 -18 -16 -73 -56 -123 -89 -49
-33 -104 -75 -123 -94 -37 -37 -71 -103 -72 -138 0 -59 -53 -11 -65 59 l-7 42
-24 -29 c-35 -44 -57 -119 -51 -169 4 -23 20 -76 37 -118 33 -84 40 -158 15
-158 -8 0 -15 6 -15 14 0 21 -47 74 -81 91 l-28 15 6 -48 c4 -38 -1 -66 -27
-137 -17 -50 -39 -116 -47 -147 -15 -56 -17 -58 -49 -58 -28 0 -36 5 -44 25
-12 31 -28 32 -32 3 -3 -20 -10 -23 -50 -26 -61 -4 -63 -22 -2 -22 l46 0 -6
-37 c-3 -21 -15 -110 -26 -198 -38 -290 -70 -529 -73 -532 -2 -1 -39 -9 -82
-18 -77 -14 -122 -32 -55 -21 56 9 298 26 525 36 375 18 839 10 1221 -21 162
-13 203 -8 96 11 -60 11 -73 17 -77 34 -7 29 -95 708 -95 729 0 13 9 17 39 17
l39 0 4 -70 c4 -80 20 -104 85 -126 43 -15 179 -19 187 -5 4 5 3 17 -1 26 -5
16 -18 17 -109 12 -128 -6 -132 -3 -136 103 l-3 75 -53 3 c-46 3 -54 6 -62 28
-12 30 -28 31 -32 2 -3 -20 -9 -23 -48 -23 l-44 0 -9 45 c-5 25 -10 46 -11 48
-2 1 -24 -9 -49 -23 l-46 -26 0 -87 c0 -107 -19 -182 -74 -292 l-42 -85 -42
-3 -43 -3 0 70 0 71 -150 0 -150 0 -35 -70 c-32 -63 -38 -70 -65 -70 l-30 0 0
64 c0 73 -6 81 -68 89 -66 8 -147 53 -218 120 l-65 60 3 71 3 71 66 5 66 5 50
61 c49 58 50 61 45 112 -4 47 -3 52 15 52 20 0 73 -45 73 -61 0 -4 109 -9 243
-11 l242 -3 53 -29 c29 -17 58 -39 64 -49 9 -18 11 -17 29 12 21 35 53 41 71
12 8 -14 14 -16 24 -7 9 8 -2 39 -51 136 -75 148 -95 205 -95 265 0 25 -4 45
-10 45 -5 0 -25 -15 -44 -34 -38 -38 -54 -89 -36 -111 6 -7 7 -15 3 -18 -16
-10 -51 12 -71 45 -37 60 -46 116 -47 298 -2 190 -13 248 -60 305 -23 29 -24
29 -25 7z m20 -192 c0 -5 -4 -10 -10 -10 -5 0 -10 5 -10 10 0 6 5 10 10 10 6
0 10 -4 10 -10z m40 -100 c0 -5 -4 -10 -10 -10 -5 0 -10 5 -10 10 0 6 5 10 10
10 6 0 10 -4 10 -10z m-232 -91 c-2 -6 -8 -10 -13 -10 -5 0 -11 4 -13 10 -2 6
4 11 13 11 9 0 15 -5 13 -11z m-74 -70 c-3 -5 -10 -7 -15 -3 -5 3 -7 10 -3 15
3 5 10 7 15 3 5 -3 7 -10 3 -15z m256 -39 c0 -5 -4 -10 -10 -10 -5 0 -10 5
-10 10 0 6 5 10 10 10 6 0 10 -4 10 -10z m-300 -30 c0 -5 -5 -10 -11 -10 -5 0
-7 5 -4 10 3 6 8 10 11 10 2 0 4 -4 4 -10z m290 -120 c0 -5 -7 -10 -15 -10 -8
0 -15 5 -15 10 0 6 7 10 15 10 8 0 15 -4 15 -10z m-40 -90 c0 -5 -2 -10 -4
-10 -3 0 -8 5 -11 10 -3 6 -1 10 4 10 6 0 11 -4 11 -10z m-343 -164 c8 -8 -47
-66 -63 -66 -7 0 -22 12 -33 26 -30 38 -12 58 47 51 23 -2 46 -7 49 -11z
m-241 -227 c8 -14 -14 -29 -43 -29 -19 0 -23 -5 -23 -33 0 -53 28 -145 67
-219 44 -84 123 -160 219 -210 75 -39 171 -71 186 -62 5 3 15 0 23 -6 15 -12
179 -10 235 4 14 3 39 8 55 12 17 3 62 22 100 42 93 48 182 137 223 223 32 67
62 173 62 221 0 24 -4 27 -42 30 -31 2 -44 8 -46 21 -3 15 6 17 82 17 47 0 87
-3 89 -7 6 -9 -88 -711 -95 -719 -3 -2 -131 1 -284 7 -254 10 -457 7 -824 -15
l-24 -1 -42 310 c-23 171 -44 336 -48 368 l-7 57 65 0 c37 0 68 -5 72 -11z
m-108 -389 c23 -183 40 -335 39 -336 -6 -6 -179 -25 -184 -20 -5 5 73 666 83
695 12 37 24 -27 62 -339z m1337 318 c12 -68 84 -672 80 -676 -5 -5 -176 16
-183 22 -2 3 14 153 37 333 23 180 41 334 41 341 0 26 19 10 25 -20z m-888
-191 c2 -3 -10 -33 -27 -67 -29 -58 -33 -61 -63 -58 -32 3 -32 3 -35 67 -4 91
-4 91 63 76 31 -8 59 -16 62 -18z m433 -2 c0 -3 -14 -32 -30 -65 -27 -53 -34
-60 -60 -60 l-30 0 0 65 0 65 60 0 c33 0 60 -2 60 -5z"/>
<path d="M847 934 c-4 -4 -7 -16 -7 -26 0 -13 7 -18 26 -18 21 0 25 4 22 22
-3 23 -27 35 -41 22z"/>
</g>
</svg>
